<?xml version="1.0" encoding="utf-8"?><svg version="1.1" id="Layer_1" xmlns="http://www.w3.org/2000/svg" xmlns:xlink="http://www.w3.org/1999/xlink" x="0px" y="0px" viewBox="0 0 122.88 98.48" style="enable-background:new 0 0 122.88 98.48" xml:space="preserve"><style type="text/css"><![CDATA[
	.st0{fill:#263036;}
	.st1{fill-rule:evenodd;clip-rule:evenodd;fill:#90CAF8;}
]]></style><g><path class="st1" d="M68.36,4.78c21.09,0,38.18,17.1,38.18,38.18c0,21.09-17.1,38.18-38.18,38.18c-10.78,0-20.51-4.47-27.46-11.65 h12.09c0.9,0,1.76-0.13,2.56-0.38c3.86,1.9,8.21,2.96,12.81,2.96c16.08,0,29.11-13.04,29.11-29.11c0-16.08-13.03-29.11-29.11-29.11 c-4.7,0-9.14,1.12-13.08,3.1c-0.95-0.36-2-0.56-3.1-0.56H40.95C47.89,9.22,57.61,4.78,68.36,4.78L68.36,4.78L68.36,4.78z"/><path class="st0" d="M26.37,35.09H15.23v-2.95c0-1.38-0.15-2.26-0.43-2.64c-0.28-0.38-0.75-0.56-1.41-0.56 c-0.72,0-1.26,0.25-1.63,0.77c-0.37,0.5-0.55,1.27-0.55,2.3c0,1.33,0.21,2.33,0.63,3c0.41,0.66,1.54,1.48,3.39,2.44 c5.32,2.75,8.67,5.01,10.05,6.76c1.39,1.76,2.08,4.59,2.08,8.49c0,2.84-0.39,4.93-1.16,6.28c-0.77,1.35-2.25,2.47-4.45,3.38 c-2.2,0.92-4.75,1.37-7.68,1.37c-3.21,0-5.94-0.53-8.22-1.58c-2.27-1.05-3.74-2.38-4.45-4.01c-0.7-1.63-1.05-3.94-1.05-6.92V48.6 h11.14v4.85c0,1.49,0.16,2.46,0.47,2.88c0.31,0.43,0.87,0.64,1.66,0.64c0.8,0,1.39-0.27,1.78-0.81c0.39-0.54,0.58-1.34,0.58-2.4 c0-2.34-0.37-3.88-1.11-4.6c-0.77-0.72-2.63-1.93-5.61-3.63c-2.98-1.71-4.94-2.95-5.91-3.72c-0.96-0.77-1.77-1.84-2.4-3.2 C0.32,37.24,0,35.5,0,33.38c0-3.05,0.45-5.29,1.35-6.7c0.9-1.41,2.35-2.51,4.37-3.31c2.01-0.8,4.43-1.19,7.28-1.19 c3.11,0,5.76,0.44,7.95,1.3c2.19,0.87,3.64,1.97,4.35,3.29c0.71,1.32,1.07,3.56,1.07,6.73V35.09L26.37,35.09z M68.32,0 c11.87,0,22.61,4.81,30.39,12.59c7.77,7.77,12.58,18.52,12.58,30.39c0,8.68-2.57,16.76-7.01,23.52l18.6,20.27l-12.82,11.72 L92.13,78.76c-6.81,4.54-15,7.2-23.8,7.2c-11.87,0-22.61-4.81-30.39-12.59c-1.22-1.22-2.37-2.52-3.44-3.88h6.34 c0.16,0.16,0.32,0.33,0.48,0.49c6.91,6.91,16.46,11.18,27,11.18s20.09-4.27,27-11.18s11.18-16.46,11.18-27s-4.26-20.09-11.17-27 l0,0l0,0c-6.91-6.91-16.46-11.18-27-11.18c-10.54,0-20.09,4.27-27,11.18c-0.13,0.13-0.27,0.27-0.4,0.4h-6.37 c1.05-1.33,2.17-2.6,3.37-3.79C45.71,4.81,56.45,0,68.32,0L68.32,0L68.32,0L68.32,0z M31.63,22.99h20.55v7.96h-8.53v7.61h8v7.56h-8 v8.77h9.34v7.96H31.63V22.99L31.63,22.99z M84.77,46.36c0,4.01-0.11,6.84-0.33,8.5c-0.21,1.67-0.89,3.19-2.04,4.57 c-1.15,1.38-2.7,2.44-4.66,3.18c-1.96,0.74-4.23,1.11-6.83,1.11c-2.47,0-4.68-0.35-6.64-1.05s-3.55-1.74-4.74-3.13 c-1.2-1.39-1.91-2.92-2.14-4.55c-0.22-1.65-0.34-4.52-0.34-8.62v-6.82c0-4.01,0.11-6.84,0.33-8.5c0.21-1.67,0.9-3.19,2.04-4.57 s2.7-2.44,4.66-3.18s4.23-1.11,6.83-1.11c2.47,0,4.68,0.35,6.64,1.05c1.96,0.7,3.55,1.74,4.74,3.13c1.2,1.4,1.91,2.92,2.14,4.55 c0.22,1.65,0.34,4.52,0.34,8.62V46.36L84.77,46.36z M72.75,33.27c0-1.85-0.12-3.03-0.35-3.55c-0.23-0.51-0.71-0.77-1.43-0.77 c-0.61,0-1.08,0.21-1.41,0.63c-0.32,0.41-0.49,1.65-0.49,3.7v18.61c0,2.31,0.11,3.74,0.32,4.28c0.21,0.55,0.71,0.81,1.49,0.81 c0.8,0,1.31-0.31,1.54-0.93s0.33-2.11,0.33-4.45V33.27L72.75,33.27z"/></g></svg>